<?xml version="1.0" encoding="UTF-8"?>
<!DOCTYPE svg PUBLIC "-//W3C//DTD SVG 1.1//EN" "http://www.w3.org/Graphics/SVG/1.1/DTD/svg11.dtd">
<!-- Creator: CorelDRAW -->
<svg xmlns="http://www.w3.org/2000/svg" xml:space="preserve" width="64.4406mm" height="21.1116mm" version="1.1" style="shape-rendering:geometricPrecision; text-rendering:geometricPrecision; image-rendering:optimizeQuality; fill-rule:evenodd; clip-rule:evenodd"
viewBox="0 0 4576.03 1499.17"
 xmlns:xlink="http://www.w3.org/1999/xlink"
 xmlns:xodm="http://www.corel.com/coreldraw/odm/2003">
 <defs>
  <style type="text/css">
   <![CDATA[
    .fil2 {fill:#12825D}
    .fil1 {fill:black}
    .fil0 {fill:#12825D}
    .fil5 {fill:#12825D;fill-rule:nonzero}
    .fil3 {fill:black;fill-rule:nonzero}
    .fil4 {fill:black;fill-rule:nonzero}
   ]]>
  </style>
 </defs>
 <g id="Layer_x0020_1">
  <metadata id="CorelCorpID_0Corel-Layer"/>
  <g id="_2027031137312">
   <path class="fil0" d="M429.17 925.26c0,-50.56 80.47,-59.55 80.47,5.37 0,43.09 -80.47,50.28 -80.47,-5.37zm-107.28 40.24c-50.57,0 -59.66,-80.46 5.36,-80.46 9.27,0 19.97,7.7 24.65,12.9 21.94,24.39 7.34,67.56 -30.01,67.56zm-190.44 -40.24c0,-54.35 83.15,-52.47 83.15,0 0,52.9 -83.15,52.9 -83.15,0zm619.59 -276.26c0.87,-10.56 44.11,-129.21 50.96,-142.16l32.19 0 53.64 142.16 -32.19 0c-1.65,-7.09 -3.12,-11.49 -5.9,-18.24 -2.85,-6.95 -1.69,-11.27 -10.19,-11.27 -67.26,0 -43.12,-3.61 -59.01,29.51l-29.5 0zm152.88 -142.16l28.94 0.05c5.34,79.27 0.57,73.02 0.57,142.11l-29.51 0 0 -142.16zm185.07 10.73c0,-15.98 34.87,-26.89 34.87,2.68 0,20.47 -34.87,20.43 -34.87,-2.68zm-480.11 -222.62c0,-6.85 16.03,-26.08 30.14,-8.68 19.01,23.43 -30.14,43.18 -30.14,8.68zm474.68 187.68c-7.12,4.35 -13.62,12.55 -16.02,21.54l-61.69 0c3.76,-9.1 0.38,-49 -5.35,-59.02 -16.11,-28.21 -47.58,-24.13 -75.12,-24.13l0 -45.6c0,-12.29 24.61,-16.84 19.63,-40.89 -8.69,-41.9 -65.22,-33.23 -65.22,0.66 0,37.93 18.78,22.53 18.78,40.23l0 45.6 -118.02 0c0,-97.78 9.17,-79.49 -31.42,-113.41 -32.66,-27.29 -0.33,-23.38 -81.22,-23.38 -4.65,-8.78 -4.74,-12.72 -12.84,-19.36 -40.66,-33.32 -90.04,16.13 -66.64,53.24 17.54,27.82 57.85,33.83 79.48,-7.06 79.19,0 31.73,-1.36 85.82,34.87l0 75.1c-70.27,0 -64.37,34.04 -64.37,88.52 -13.34,0 -55.3,3.66 -65.96,-3.78 -45.48,-31.79 -64.45,34.53 -23.77,42.48 18.61,3.64 25.49,-11.87 33.41,-11.87l56.33 0 0 152.89c0,50.87 56.39,45.6 83.15,45.6l0 56.33c0,6.74 -30.8,37.55 -37.55,37.55l-91.19 0c0,-60.42 8.52,-130.87 -28.82,-172.35 -20.77,-23.07 -35.93,-34.33 -68.04,-44.62 -38.13,-12.22 -167.29,-5.65 -219.64,-5.65 -43.91,0 -193.34,-4.91 -222.15,3.15 -34.38,9.62 -48.25,18.49 -70.94,41.71 -14.69,15.03 -34.14,49.93 -34.14,78.51l0 380.87c0,56.67 55.2,127.2 119.03,138.47 34.97,6.17 85.17,3.69 125.05,3.69 137.98,0 101.63,-12.29 173.67,51.63l198.36 171.78c14.13,11.94 15.25,16.96 27.61,17.99l0 -635.67 21.31 -2.68c96.47,-4.23 69.7,17.52 117.5,-30.18 26.91,-26.86 19.44,-22.84 19.44,-90.53l107.29 0 0 45.6c0,12.89 -8.05,13.93 -8.05,26.82 0,26.28 32.03,40.65 46.91,20.09 21.03,-29.02 -12.04,-40.41 -12.04,-52.28l2.68 -40.23c22.18,0 32.3,2.34 49.52,-9.49 37.57,-25.77 1.84,-79.03 25.58,-79.03 73.72,0 47.69,-3.6 73.18,18.02 20.07,17.03 18.55,14.17 44.84,14.17 17,0 18.88,-7.69 30.74,6.8 6.09,7.43 13.32,14.66 25.59,14.66 63.14,0 37.33,-95.68 -14.05,-67.7 -7.85,4.27 -10.58,7.34 -12.77,16.74 -63.68,0 -42.68,6.41 -72.82,-18.38 -16.05,-13.19 -5.28,-11.41 -34.44,-11.15 -15.19,0.13 -30.43,0.02 -45.62,0.02 -4.2,-10.18 -3.08,-49.87 -2.9,-72.72 0.16,-20.17 -6.07,-13.12 61.91,-13.12 1.94,7.28 6.01,13.22 11.7,17.8 1.01,0.81 9.43,6.23 9.73,6.36 13.4,6.15 35.75,4.39 50.43,-11.31 25.23,-26.97 5.33,-65.18 -27.31,-70.95 -9.07,-1.6 -22.81,3.57 -28.53,7.06z"/>
   <path class="fil0" d="M2.45 616.57c12.39,-14.71 20.4,-21.91 37.23,-32.51 63.52,-39.99 70.9,-7.07 70.49,-42.17 -0.43,-36.32 -2.56,-62.87 14.1,-95.87 8.89,-17.61 8.9,-19.65 21.4,-34.92 9.87,-12.06 5.91,-9.49 18.31,-19.24l367 -209.67c14.97,-8.64 30.85,-17.97 45.82,-26.61 56.99,-32.87 103.47,-45.67 171.27,-23.97 18.9,6.05 30.04,13.91 46.79,22.95l351.61 203.6c8.34,5.01 14.13,7.69 21,13.88 59.5,53.54 66.37,93.84 66.37,177.71 0,95.48 -2.86,42.21 17.99,86.67 11.29,24.09 6.23,50.89 -9.42,69.42 -8.09,9.57 -6.16,6.42 -5.99,23.51l0.11 147.62c20.76,-1.73 52.11,-21.3 66.43,-35.48 16.4,-16.25 32.81,-37.76 32.81,-69.12l0 -311.14c0,-71.38 -38.41,-134.2 -91.57,-173.96 -40.42,-30.24 -251.93,-147.18 -310.9,-182.63 -15.86,-9.54 -31.56,-17.65 -47.64,-27.46l-35.48 -20.85c-4.46,-2.57 -7.09,-3.55 -12.19,-6.6 -76.44,-45.63 -147.11,-64.98 -236.87,-36.14 -39.94,12.83 -132.25,67.09 -175.51,90.04l-292.36 160.93c-74.77,41.56 -133.64,110.52 -133.24,204.72 0.21,50.05 0.01,100.15 0.01,150.21l2.44 -2.93z"/>
   <path class="fil1" d="M686.66 1491.21c0,8.23 4.19,8.45 12.43,7.66 37.15,-3.61 78.99,-11.58 111.86,-28.21l309.38 -173.42c9.88,-5.5 15.96,-8.89 25.84,-14.39l112.46 -69.93c33.72,-31.54 56.89,-59.61 69.66,-110.05 12.47,-49.23 7.46,-177.19 7.46,-233.93 -24.78,16.6 -13.29,27.47 -88.58,56.26 -12.22,4.67 -16.07,3.86 -16.24,21.31 -0.7,71.93 7.83,135.1 -63.73,188.4 -8.94,6.66 -13.34,8.37 -23.7,13.85 -8.59,4.56 -13.82,8.14 -22.36,12.51 -8.49,4.35 -15.18,8.82 -24.14,13.41 -8.38,4.28 -12.84,7.89 -22.31,12.56l-139.47 77.79c-6.33,3.52 -5.32,3.55 -11.68,7.09 -4.95,2.76 -7.53,3.88 -12.1,6.68 -8.12,4.96 -14.14,7.33 -22.5,12.36l-92.4 52.44c-12.8,7.51 -34.99,15.95 -52.45,19.97 -11.02,2.54 -18.12,4.39 -30.53,4.34 -35.73,-0.15 -26.89,-16.92 -26.89,123.3z"/>
   <path class="fil2" d="M1040.71 1161.3c5.65,-2.99 8.57,-5.08 13.51,-7.95l69.55 -37.74c2.28,-1.3 11.38,-6.66 13.29,-8.17 9,-7.13 8.26,-8.34 8.26,-13.2l0 -225.31c0,-5.92 -3.37,-14.31 -6.31,-17.82 -3.85,-4.59 -7.68,-6.32 -15.14,-6.32 -48.88,0 -91.2,-9.03 -91.2,21.46l0 281.62c0.38,6.34 1.38,5.6 8.05,13.41z"/>
   <path class="fil2" d="M885.14 1244.44c11.42,-2.66 55.66,-29.24 69.83,-37.45 4.84,-2.8 8.65,-4.26 14.22,-7.25 3.06,-1.64 11.37,-6.8 12.94,-8.51 3.56,-3.88 4.94,-6.92 4.94,-13.84l0 -179.7c0,-33.33 -42.96,-24.14 -91.19,-24.14 -12.19,0 -13.99,5.73 -21.46,10.73l0 252.13 10.73 8.05z"/>
   <path class="fil2" d="M807.36 1252.49c12.97,0 21.45,-8.48 21.45,-21.45l0 -109.98c0,-12.19 -5.72,-13.99 -10.73,-21.45l-91.19 0c-5,7.46 -10.73,9.27 -10.73,21.45l0 112.65c0,12.52 6.26,18.78 18.78,18.78l72.42 0z"/>
   <path class="fil2" d="M801.99 592.67l34.87 0c-5.45,-11.37 -12.98,-32.26 -16.09,-45.6l-5.36 0c-1.53,18.32 -11.97,28.27 -13.41,45.6z"/>
  </g>
  <g id="_2027031143456">
   <path class="fil3" d="M2360.08 1040.35l13.43 0 51.14 120.31 -16.65 0 -12.23 -29.57 -60.15 0 -12.41 29.57 -16.14 0 53.01 -120.31zm6.46 18.36l-0.34 0 -24.98 59.13 49.11 0 -23.79 -59.13zm108.66 -18.36l14.27 0 0 120.31 -14.27 0 0 -120.31zm181.9 100.94c2.83,0 5.24,0.99 7.22,2.98 1.98,1.98 2.98,4.39 2.98,7.22 0,2.83 -1.05,5.24 -3.15,7.22 -2.09,1.98 -4.45,2.98 -7.05,2.98 -2.61,0 -4.96,-0.99 -7.05,-2.98 -2.09,-1.98 -3.15,-4.39 -3.15,-7.22 0,-2.83 0.99,-5.24 2.98,-7.22 1.98,-1.98 4.39,-2.98 7.22,-2.98zm204.67 -76.12c-3.63,-4.87 -8.1,-8.53 -13.43,-10.96 -5.33,-2.44 -10.87,-3.65 -16.65,-3.65 -6.68,0 -12.83,1.36 -18.43,4.08 -5.61,2.72 -10.45,6.38 -14.53,10.96 -4.08,4.59 -7.25,9.91 -9.52,15.97 -2.27,6.06 -3.4,12.38 -3.4,18.95 0,7.02 1.14,13.56 3.4,19.63 2.27,6.06 5.41,11.33 9.43,15.8 4.02,4.47 8.83,8.02 14.44,10.62 5.61,2.61 11.81,3.91 18.61,3.91 7.36,0 13.93,-1.44 19.71,-4.33 5.77,-2.89 10.82,-7.05 15.13,-12.49l10.7 9.01c-5.44,7.24 -11.98,12.57 -19.63,15.97 -7.65,3.39 -16.28,5.1 -25.91,5.1 -8.61,0 -16.65,-1.59 -24.13,-4.76 -7.48,-3.17 -13.96,-7.56 -19.46,-13.17 -5.49,-5.6 -9.8,-12.26 -12.91,-19.96 -3.12,-7.7 -4.67,-16.15 -4.67,-25.32 0,-8.83 1.5,-17.11 4.5,-24.8 3,-7.7 7.22,-14.39 12.65,-20.05 5.44,-5.67 11.9,-10.14 19.37,-13.43 7.48,-3.28 15.69,-4.92 24.64,-4.92 8.16,0 16,1.47 23.53,4.42 7.53,2.94 13.85,7.75 18.95,14.44l-12.4 9zm69.92 -24.81l14.27 0 0 50.98 64.23 0 0 -50.98 14.27 0 0 120.31 -14.27 0 0 -56.08 -64.23 0 0 56.08 -14.27 0 0 -120.31zm196.34 0l13.43 0 51.14 120.31 -16.65 0 -12.23 -29.57 -60.15 0 -12.41 29.57 -16.14 0 53.01 -120.31zm6.46 18.36l-0.34 0 -24.98 59.13 49.11 0 -23.79 -59.13zm173.74 -5.1l-39.76 0 0 107.05 -14.27 0 0 -107.05 -39.77 0 0 -13.26 93.8 0 0 13.26zm107.3 87.68c2.83,0 5.24,0.99 7.22,2.98 1.98,1.98 2.98,4.39 2.98,7.22 0,2.83 -1.05,5.24 -3.15,7.22 -2.09,1.98 -4.45,2.98 -7.05,2.98 -2.61,0 -4.96,-0.99 -7.05,-2.98 -2.09,-1.98 -3.15,-4.39 -3.15,-7.22 0,-2.83 0.99,-5.24 2.98,-7.22 1.98,-1.98 4.39,-2.98 7.22,-2.98zm120.39 -100.94l75.61 0 0 13.26 -61.34 0 0 37.72 57.26 0 0 13.25 -57.26 0 0 42.83 64.4 0 0 13.25 -78.67 0 0 -120.31zm135.34 0l30.76 0c5.77,0 11.53,0.34 17.25,1.02 5.72,0.68 10.84,2.15 15.37,4.42 4.53,2.27 8.22,5.58 11.05,9.94 2.83,4.36 4.25,10.28 4.25,17.75 0,8.84 -2.66,15.98 -7.99,21.41 -5.33,5.44 -12.68,8.9 -22.09,10.37l34.16 55.4 -17.5 0 -32.62 -54.03 -18.35 0 0 54.03 -14.27 0 0 -120.31zm14.27 53.02l12.74 0c3.97,0 8.07,-0.11 12.32,-0.34 4.25,-0.23 8.16,-0.96 11.72,-2.21 3.57,-1.24 6.52,-3.2 8.84,-5.86 2.32,-2.66 3.48,-6.49 3.48,-11.48 0,-4.3 -0.85,-7.75 -2.55,-10.36 -1.7,-2.61 -3.93,-4.62 -6.71,-6.04 -2.78,-1.41 -5.89,-2.35 -9.35,-2.8 -3.46,-0.45 -6.94,-0.67 -10.45,-0.67l-20.05 0 0 39.76zm124.13 -53.02l35.68 0c5.55,0 10.84,0.54 15.89,1.62 5.04,1.07 9.52,2.88 13.43,5.43 3.91,2.55 7.02,5.95 9.35,10.2 2.32,4.25 3.48,9.49 3.48,15.71 0,6.58 -1.24,12.01 -3.74,16.32 -2.49,4.3 -5.7,7.7 -9.6,10.19 -3.91,2.49 -8.19,4.25 -12.83,5.27 -4.64,1.02 -9.06,1.53 -13.25,1.53l-24.13 0 0 54.03 -14.27 0 0 -120.31zm14.27 53.02l24.13 0c7.14,0 12.94,-1.61 17.41,-4.84 4.48,-3.23 6.72,-8.24 6.72,-15.04 0,-6.8 -2.24,-11.81 -6.72,-15.03 -4.47,-3.23 -10.28,-4.84 -17.41,-4.84l-24.13 0 0 39.76z"/>
   <g>
    <path class="fil4" d="M1814.95 706.91l-158.72 0 0 67.29 131.29 0 0 44.25 -131.29 0 0 97.28 -47.18 0 0 -255.63 205.9 0 0 46.81zm58.14 208.82l0 -255.63 47.17 0 0 255.63 -47.17 0zm350.71 0l-34.38 0 -151.04 -175.54 0 175.54 -47.17 0 0 -255.63 34.38 0 151.03 175.54 0 -175.54 47.18 0 0 255.63zm50.1 -255.63l226.01 0 0 44.25 -89.6 0 0 211.38 -46.81 0 0 -211.38 -89.6 0 0 -44.25zm450.55 167.86l65.83 87.77 -55.59 0 -58.88 -78.62 -77.16 0 0 78.62 -47.18 0 0 -255.63 134.22 0c24.63,0 45.71,8.65 63.26,25.96 17.55,17.31 26.33,38.15 26.33,62.54 0,17.31 -4.63,33.03 -13.9,47.17 -9.26,14.14 -21.57,24.87 -36.93,32.18zm-40.23 -36.57c12.19,0 22.55,-4.15 31.08,-12.43 8.54,-8.29 12.8,-18.41 12.8,-30.35 0,-11.95 -4.27,-22.13 -12.8,-30.54 -8.53,-8.41 -18.89,-12.61 -31.08,-12.61l-85.58 0 0 85.94 85.58 0zm285.98 -131.29l102.04 255.63 -47.54 0 -23.04 -57.41 -124.7 0 -23.04 57.41 -47.9 0 102.4 -255.63 61.8 0zm-76.07 155.42l90.33 0 -45.35 -113 -44.99 113z"/>
    <path class="fil5" d="M3411.98 781.14c9.76,4.63 18.96,12.19 27.62,22.67 8.66,10.48 12.98,23.41 12.98,38.77 0,20.24 -7.13,37.49 -21.4,51.75 -14.26,14.27 -31.39,21.4 -51.38,21.4l-154.69 0 0 -255.63 147.75 0c19.26,0 35.65,6.76 49.19,20.3 13.53,13.53 20.3,29.92 20.3,49.19 0,11.7 -3.23,22.06 -9.69,31.08 -6.46,9.02 -13.35,15.85 -20.66,20.48zm-18.29 -47.9c0,-8.54 -2.98,-15.73 -8.95,-21.58 -5.97,-5.85 -13.11,-8.78 -21.4,-8.78l-92.53 0 0 60.35 92.53 0c8.54,0 15.72,-2.93 21.57,-8.78 5.85,-5.85 8.78,-12.92 8.78,-21.21zm-22.67 139.7c9.51,0 17.62,-3.36 24.32,-10.06 6.7,-6.7 10.06,-14.81 10.06,-24.31 0,-9.51 -3.35,-17.55 -10.06,-24.14 -6.7,-6.58 -14.81,-9.88 -24.32,-9.88l-100.2 0 0 68.39 100.2 0zm155.79 -180.3c26.33,-26.33 58.03,-39.5 95.08,-39.5 37.06,0 68.82,13.17 95.27,39.5 26.45,26.33 39.68,58.02 39.68,95.08 0,37.06 -13.23,68.82 -39.68,95.27 -26.45,26.45 -58.21,39.67 -95.27,39.67 -37.05,0 -68.75,-13.22 -95.08,-39.67 -26.33,-26.45 -39.5,-58.21 -39.5,-95.27 0,-37.06 13.17,-68.75 39.5,-95.08zm33.28 157.07c17.06,17.19 37.66,25.78 61.8,25.78 24.14,0 44.8,-8.59 61.99,-25.78 17.18,-17.18 25.78,-37.85 25.78,-61.99 0,-24.14 -8.59,-44.74 -25.78,-61.8 -17.19,-17.07 -37.86,-25.6 -61.99,-25.6 -24.14,0 -44.74,8.53 -61.8,25.6 -17.06,17.06 -25.6,37.66 -25.6,61.8 0,24.14 8.54,44.8 25.6,61.99zm271.35 -157.07c26.33,-26.33 58.03,-39.5 95.08,-39.5 37.06,0 68.82,13.17 95.27,39.5 26.45,26.33 39.68,58.02 39.68,95.08 0,37.06 -13.23,68.82 -39.68,95.27 -26.45,26.45 -58.21,39.67 -95.27,39.67 -37.05,0 -68.75,-13.22 -95.08,-39.67 -26.33,-26.45 -39.5,-58.21 -39.5,-95.27 0,-37.06 13.17,-68.75 39.5,-95.08zm33.28 157.07c17.06,17.19 37.66,25.78 61.8,25.78 24.14,0 44.8,-8.59 61.99,-25.78 17.18,-17.18 25.78,-37.85 25.78,-61.99 0,-24.14 -8.59,-44.74 -25.78,-61.8 -17.19,-17.07 -37.86,-25.6 -61.99,-25.6 -24.14,0 -44.74,8.53 -61.8,25.6 -17.06,17.06 -25.6,37.66 -25.6,61.8 0,24.14 8.54,44.8 25.6,61.99zm468.1 -189.62l-110.81 117.03 122.88 138.6 -58.88 0 -94.72 -106.42 -33.65 35.84 0 70.58 -47.18 0 0 -255.63 47.18 0 0 122.88 116.3 -122.88 58.88 0zm151.04 106.79c10.97,3.41 19.81,6.33 26.52,8.78 6.7,2.44 14.75,6.03 24.14,10.79 9.39,4.75 16.7,9.63 21.94,14.63 5.24,5 9.81,11.4 13.71,19.2 3.9,7.8 5.85,16.33 5.85,25.6 0,18.04 -5.36,32.91 -16.09,44.62 -10.73,11.7 -23.9,19.81 -39.5,24.31 -15.6,4.51 -33.28,6.77 -53.03,6.77 -36.81,0 -71.68,-9.51 -104.59,-28.53l23.77 -37.66c28.53,15.6 56.08,23.41 82.65,23.41 38.52,0 57.78,-10 57.78,-29.99 0,-5.37 -1.53,-10.18 -4.57,-14.45 -3.05,-4.27 -7.86,-8.05 -14.44,-11.33 -6.58,-3.29 -12.74,-5.97 -18.47,-8.05 -5.73,-2.07 -13.71,-4.69 -23.95,-7.86 -0.49,-0.25 -0.92,-0.37 -1.28,-0.37 -0.37,0 -0.73,-0.12 -1.1,-0.36 -0.36,-0.25 -0.79,-0.37 -1.28,-0.37 -11.7,-3.66 -20.79,-6.58 -27.25,-8.78 -6.46,-2.19 -14.56,-5.73 -24.32,-10.6 -9.75,-4.88 -17.25,-9.81 -22.49,-14.81 -5.24,-5 -9.87,-11.52 -13.9,-19.56 -4.02,-8.05 -6.04,-17.07 -6.04,-27.06 0,-20.73 8.54,-37.43 25.6,-50.11 18.53,-13.41 44.74,-20.11 78.63,-20.11 33.16,0 66.07,9.38 98.74,28.16l-23.04 36.57c-27.3,-15.12 -53.27,-22.67 -77.89,-22.67 -17.31,0 -30.48,2.44 -39.5,7.31 -9.02,4.88 -13.53,11.34 -13.53,19.39 0,5.36 1.46,10.11 4.39,14.26 2.93,4.15 7.5,7.8 13.72,10.97 6.21,3.17 12.31,5.85 18.29,8.05 5.97,2.19 13.71,4.76 23.22,7.68 3.17,0.97 5.61,1.7 7.31,2.19z"/>
   </g>
  </g>
 </g>
</svg>
